<svg id="Layer_1" data-name="Layer 1" xmlns="http://www.w3.org/2000/svg" viewBox="0 0 792 279.97"><defs><style>.cls-1{fill:#8eff6f;}.cls-2{fill:#2ab4a8;}.cls-3{font-size:173.16px;fill:#fff;font-family:Roboto-Medium, Roboto;font-weight:500;}.cls-4,.cls-5,.cls-6,.cls-7{font-size:125.27px;}.cls-5{letter-spacing:0.01em;}.cls-6{letter-spacing:-0.06em;}.cls-7{letter-spacing:-0.03em;}</style></defs><path class="cls-1" d="M177.81,236C177.81,257,159.1,274,136,274S94.23,257,94.23,236c0-12.19,6.29-23,16.07-30,3.6,2.94,8.91,4.89,16.49,2.74-.63,1.42-7.15,6.6-7.63,16.21a14.9,14.9,0,0,1,8.19-5.36c1.34-.48,8-3.78,8-7.09h0c0,3.31,5,5,6.37,5.42,1.93.7,6.23-.56,9.85,3.69-.47-9.61-7-13.36-7.62-14.78,7.42,2.11,12.67.61,16.26-1.84C170.89,211.85,177.81,223.17,177.81,236Z"/><path class="cls-2" d="M156.51,198.43c-7.41-3.3-15.44-1.57-15.44-1.57H138.5c-2.5-6.49-7.4-15.44-11.59-16.21s-4.32,4.43-2.11,7.75a94.31,94.31,0,0,1,4.77,8.43c-1.1-.21-8.46-1.45-15.29,1.6-7.21,3.22-10.38-1.92-10.54-2.19A22.3,22.3,0,0,0,110.3,206c3.6,2.94,8.91,4.89,16.49,2.74-.63,1.42-7.15,6.6-7.63,16.21a14.9,14.9,0,0,1,8.19-5.36c1.34-.48,8-3.78,8-7.09h0c0,3.31,5,5,6.37,5.42,1.93.7,6.23-.56,9.85,3.69-.47-9.61-7-13.36-7.62-14.78,7.42,2.11,12.67.61,16.26-1.84a19.15,19.15,0,0,0,6.79-8.7c-.13.22-3.3,5.43-10.54,2.19C149.1,195.13,163.75,201.67,156.51,198.43Zm-26.31-.17-.54-1.24.55,1.24c.62,1.41,1.56,3.54,2.09,4.82Z"/><path d="M174.67,217.29a41.33,41.33,0,0,0-11.23-12.45,21.31,21.31,0,0,0,5.41-8,1.9,1.9,0,0,0-3.43-1.58,5.17,5.17,0,0,1-4.46,2.32,9.12,9.12,0,0,1-3.68-.89c-7.28-3.26-15-2-16.4-1.74h-1.1c-1.64-4-6.76-15.11-12.52-16.18a4.57,4.57,0,0,0-4.88,1.84c-1.24,1.9-1.36,5.54.84,8.84.82,1.21,1.84,2.95,3,5.08a28.11,28.11,0,0,0-12.71,2.16c-5.58,2.49-7.9-1-8.14-1.43a1.9,1.9,0,0,0-3.45,1.52,24.49,24.49,0,0,0,5.43,9,41.14,41.14,0,0,0-10.42,12.29A36.87,36.87,0,0,0,92.33,236a38.11,38.11,0,0,0,12.86,28.33,46.65,46.65,0,0,0,61.66,0A38.07,38.07,0,0,0,179.71,236,37.39,37.39,0,0,0,174.67,217.29Zm-59.61-17.12a25.64,25.64,0,0,1,13.19-1.63l.2.47h0l2.11,4.82a1.9,1.9,0,0,0,3.5-1.48c-.53-1.27-1.44-3.35-2.12-4.87-.25-.57-.45-1-.55-1.26l0-.08-.09-.19a91,91,0,0,0-4.88-8.62c-1.21-1.81-1.29-3.91-.82-4.63.06-.1.22-.34,1-.19,2.59.48,7.15,7.22,10.16,15a1.91,1.91,0,0,0,1.77,1.22h2.57a2.58,2.58,0,0,0,.4,0,25.36,25.36,0,0,1,4.75-.41,23.58,23.58,0,0,1,9.51,1.86,12.35,12.35,0,0,0,5.82,1.2,15.15,15.15,0,0,1-2.36,2c-3.94,2.69-8.88,3.23-14.68,1.59a1.87,1.87,0,0,0-1.95.58,1.91,1.91,0,0,0-.3,2,7,7,0,0,0,1.61,1.95,18.28,18.28,0,0,1,5.09,7.75,14.58,14.58,0,0,0-5-1,8.71,8.71,0,0,1-1.53-.17l-.19-.07c-4.28-1.51-4.92-2.88-4.92-3.57a1.92,1.92,0,0,0-1.92-1.9,1.9,1.9,0,0,0-1.89,1.9c0,1.64-4.81,4.6-6.78,5.3L126,218a16.3,16.3,0,0,0-4,1.77,24.86,24.86,0,0,1,5.1-8.39,9.12,9.12,0,0,0,1.4-1.9,1.91,1.91,0,0,0-.3-2,1.93,1.93,0,0,0-1.44-.66,1.88,1.88,0,0,0-.52.08c-5.84,1.65-10.81.85-14.76-2.39h0a17.53,17.53,0,0,1-3-3.16,12,12,0,0,0,6.53-1.15Zm21,72c-22,0-39.89-16.22-39.89-36.17,0-10.74,5.14-20.74,14.16-27.64a18,18,0,0,0,9,3.13,21.29,21.29,0,0,0,2.88,0,24.17,24.17,0,0,0-4.93,13.36,1.89,1.89,0,0,0,1.2,1.86,1.85,1.85,0,0,0,.69.14,2,2,0,0,0,.89-.22l.17-.1a2.57,2.57,0,0,0,.39-.35c2.82-3.31,4.81-4,6.57-4.53l.81-.27a23.73,23.73,0,0,0,7.39-4.79A15.74,15.74,0,0,0,141,219.6l.17.06a9.12,9.12,0,0,0,2.58.39c2,.13,4.36.27,6.47,2.74a1.9,1.9,0,0,0,3.34-1.32,20.07,20.07,0,0,0-4.39-11.83,19.63,19.63,0,0,0,8.85-1.32,18.07,18.07,0,0,0,2.25-1.11,37.75,37.75,0,0,1,11.15,12A33.55,33.55,0,0,1,175.91,236C175.91,255.91,158,272.13,136,272.13Z"/><path d="M136,268.32c-19.48,0-35.33-14.52-35.33-32.36a1.9,1.9,0,1,1,3.8,0c0,15.75,14.15,28.56,31.53,28.56a1.9,1.9,0,1,1,0,3.8Z"/><path d="M143.87,267.48a1.9,1.9,0,1,1,0-3.8h0a1.9,1.9,0,1,1,0,3.8Z"/><text class="cls-3" transform="translate(151.54 126.87) scale(1.02 1)">R<tspan class="cls-4" x="108.06" y="0">ANCID</tspan><tspan x="-140.03" y="148.85">T</tspan><tspan class="cls-4" x="-34.93" y="148.85" xml:space="preserve">  </tspan><tspan class="cls-5" x="27.46" y="148.85">M</tspan><tspan class="cls-6" x="138.23" y="148.85">A</tspan><tspan class="cls-4" x="214.26" y="148.85">TIL</tspan><tspan class="cls-7" x="393.41" y="148.85">L</tspan><tspan class="cls-4" x="457.27" y="148.85">OS</tspan></text></svg>